<svg width="324" height="324" viewBox="0 0 324 324" fill="none" xmlns="http://www.w3.org/2000/svg">
<path d="M237.865 246.479V247.898C237.865 289.925 203.844 324 161.884 324C119.925 324 85.9036 289.925 85.9036 247.898V146.24H138.069V247.898C138.069 261.244 148.843 271.751 162.168 271.751C175.493 271.751 185.983 260.961 185.983 247.898V246.479H238.148H237.865Z" fill="#231F20"/>
<path d="M237.865 76.1017V177.76H185.699V76.1017C185.699 62.7555 174.926 52.2489 161.884 52.2489C148.843 52.2489 137.786 63.0394 137.786 76.1017V77.5215H85.6201V76.1017C85.6201 34.0754 119.641 0 161.601 0C203.56 0 237.581 34.0754 237.581 76.1017H237.865Z" fill="#231F20"/>
<path d="M177.477 85.7563V138.005H75.9807C62.6557 138.005 52.1658 148.796 52.1658 162.142C52.1658 175.488 62.9392 185.995 75.9807 185.995H77.3982V238.244H75.9807C34.0212 238.244 0 204.168 0 162.142C0 120.116 34.0212 86.0403 75.9807 86.0403H177.477V85.7563Z" fill="#0076FF"/>
<path d="M323.485 162.142C323.485 204.168 289.464 238.244 247.504 238.244H146.291V185.995H247.504C260.829 185.995 271.603 175.204 271.603 162.142C271.603 149.08 260.829 138.005 247.504 138.005H246.087V85.7563H247.504C289.464 85.7563 323.485 119.832 323.485 161.858V162.142Z" fill="#0076FF"/>
</svg>
